<?xml version="1.0" encoding="utf-8"?>
<!-- Generator: Adobe Illustrator 22.0.1, SVG Export Plug-In . SVG Version: 6.00 Build 0)  -->
<svg version="1.1" id="Layer_1" xmlns="http://www.w3.org/2000/svg" xmlns:xlink="http://www.w3.org/1999/xlink" x="0px" y="0px"
	 viewBox="0 0 145.8 63" style="enable-background:new 0 0 145.8 63;" xml:space="preserve">
<style type="text/css">
	.st0{fill:#FFFFFF;}
</style>
<g>
	<path class="st0" d="M9.4,9.2v13.5h14.9v5H9.4V46h-5V4.3h24.4v4.9C28.8,9.2,9.4,9.2,9.4,9.2z"/>
	<path class="st0" d="M62.6,45.9V32.4c0-3.1-0.9-4.7-4-4.7H43.8V46h-4.9V4.3h19.9c5.2,0,9.1,3.9,9.1,9.1v4.7c0,5.4-3.7,6.9-3.7,6.9
		s3.7,1.4,3.7,6.3v14.6H62.6z M62.6,12.8c0-1.9-1.7-4-3.6-4H43.8v13.8h14.5c3.4,0,4.4-1.4,4.4-4.5v-5.3H62.6z"/>
	<path class="st0" d="M79.3,45.9V4.3h24.8v4.9H84.3v13.5h15.4v5H84.3V41h19.8v4.9H79.3z"/>
	<path class="st0" d="M115.6,45.9V4.3h24.8v4.9h-19.8v13.5H136v5h-15.4V41h19.8v4.9H115.6z"/>
</g>
<g>
	<path class="st0" d="M7.5,59H7.1v2.3H6.4V59H4.5v-0.9h3.1c0.4,0,0.7-0.3,0.7-0.7s-0.4-0.6-0.7-0.6l-1.7-0.1c-1,0-1.8-0.7-1.8-1.5
		c0-0.9,0.7-1.6,1.7-1.6h0.6v-2.2h0.7v2.2h1.6v0.9h-3c-0.4,0-0.7,0.3-0.7,0.7s0.4,0.7,0.8,0.7h1.8c1,0,1.7,0.7,1.7,1.5
		C9.2,58.2,8.5,59,7.5,59z"/>
	<path class="st0" d="M11.3,60.1v-0.8c0-2.4,4.2-3.2,4.2-4.7v-0.5c0-0.4-0.3-0.7-0.7-0.7h-1.9c-0.4,0-0.7,0.3-0.7,0.7v0.4h-0.9v-0.3
		c0-1,0.7-1.8,1.6-1.8h1.8c1,0,1.7,0.6,1.7,1.6v0.6c0,2.1-4.1,2.9-4.1,4.5v0.1h4.1v0.9H11.3z"/>
	<path class="st0" d="M22.2,60.1h-2c-1,0-1.7-0.7-1.7-1.7V58h0.9v0.4c0,0.4,0.3,0.7,0.7,0.7h2.2c0.4,0,0.7-0.3,0.7-0.7v-1.7
		c0-0.5-0.3-0.9-0.7-0.9L18.7,56l0.1-3.6h4.7v0.9h-3.8l-0.1,1.8L22,55c1.1,0,1.8,0.8,1.8,1.8v1.6C23.9,59.4,23.2,60.1,22.2,60.1z"/>
	<path class="st0" d="M29.7,60.1h-2.1c-1,0-1.7-0.7-1.7-1.7v-4.3c0-1,0.7-1.7,1.7-1.7h2.1c1,0,1.7,0.7,1.7,1.7v4.3
		C31.4,59.4,30.7,60.1,29.7,60.1z M30.5,54c0-0.4-0.3-0.7-0.7-0.7h-2.2c-0.4,0-0.7,0.3-0.7,0.7v4.5c0,0.4,0.3,0.7,0.7,0.7h2.2
		c0.4,0,0.7-0.3,0.7-0.7V54z M29.1,56.8h-0.8c-0.1,0-0.1-0.1-0.1-0.1v-0.8c0-0.1,0.1-0.1,0.1-0.1h0.8c0.1,0,0.1,0.1,0.1,0.1v0.8
		C29.2,56.7,29.2,56.8,29.1,56.8z"/>
	<path class="st0" d="M37.2,60.1h-2.1c-1,0-1.7-0.7-1.7-1.7v-4.3c0-1,0.7-1.7,1.7-1.7h2.1c1,0,1.7,0.7,1.7,1.7v4.3
		C38.9,59.4,38.2,60.1,37.2,60.1z M38,54c0-0.4-0.3-0.7-0.7-0.7h-2.2c-0.4,0-0.7,0.3-0.7,0.7v4.5c0,0.4,0.3,0.7,0.7,0.7h2.2
		c0.4,0,0.7-0.3,0.7-0.7V54z M36.6,56.8h-0.8c-0.1,0-0.1-0.1-0.1-0.1v-0.8c0-0.1,0.1-0.1,0.1-0.1h0.8c0.1,0,0.1,0.1,0.1,0.1
		L36.6,56.8C36.7,56.7,36.7,56.8,36.6,56.8z"/>
	<path class="st0" d="M51,60.1h-0.9v-2.5h-3.5v2.5h-0.9v-4.7c0-0.5,0.1-0.8,0.4-1.2l1.8-1.8h1l1.8,1.8c0.3,0.4,0.4,0.7,0.4,1.2
		L51,60.1L51,60.1z M49.9,54.8l-1.5-1.5h-0.1l-1.5,1.5c-0.2,0.2-0.2,0.3-0.2,0.7v1.3h3.5v-1.3C50.1,55.2,50.1,55,49.9,54.8z"/>
	<path class="st0" d="M56.8,60.1h-3.7v-7.6h3.7c1,0,1.7,0.7,1.7,1.7v4.3C58.5,59.4,57.8,60.1,56.8,60.1z M57.6,54
		c0-0.4-0.3-0.7-0.7-0.7H54v5.8h2.9c0.4,0,0.7-0.3,0.7-0.7C57.6,58.4,57.6,54,57.6,54z"/>
	<path class="st0" d="M64.4,53.3v5.1c0,1-0.7,1.7-1.7,1.7h-1.1c-1,0-1.7-0.7-1.7-1.7V58h0.9v0.5c0,0.4,0.3,0.7,0.7,0.7h1.2
		c0.4,0,0.7-0.3,0.7-0.7v-5.2h-1.2v-0.9h3.2v0.9H64.4z"/>
	<path class="st0" d="M70.9,60.1h-2c-1,0-1.7-0.7-1.7-1.7v-6h1v6c0,0.4,0.3,0.7,0.7,0.7H71c0.4,0,0.7-0.3,0.7-0.7v-6h1v6
		C72.5,59.4,71.8,60.1,70.9,60.1z"/>
	<path class="st0" d="M78.2,60.1h-2c-1,0-1.7-0.7-1.7-1.7v-0.3h0.9v0.4c0,0.4,0.3,0.7,0.7,0.7h2.2c0.4,0,0.7-0.3,0.7-0.7v-1.1
		c0-0.4-0.3-0.7-0.7-0.7l-2.1-0.1c-1,0-1.7-0.7-1.7-1.7V54c0-1,0.7-1.7,1.7-1.7h1.9c1,0,1.7,0.7,1.7,1.7v0.3h-0.9V54
		c0-0.4-0.3-0.7-0.7-0.7h-2.1c-0.4,0-0.7,0.3-0.7,0.7v1.1c0,0.4,0.3,0.7,0.7,0.7l2.1,0.1c0.9,0,1.7,0.7,1.7,1.7v0.9
		C79.9,59.4,79.2,60.1,78.2,60.1z"/>
	<path class="st0" d="M84.8,53.3V60h-1v-6.7h-2.3v-0.9h5.6v0.9H84.8z"/>
	<path class="st0" d="M93.8,60.1h-0.9v-2.5h-3.5v2.5h-0.9v-4.7c0-0.5,0.1-0.8,0.4-1.2l1.8-1.8h1l1.8,1.8c0.3,0.4,0.4,0.7,0.4,1.2
		v4.7H93.8z M92.7,54.8l-1.5-1.5h-0.1l-1.5,1.5c-0.2,0.2-0.2,0.3-0.2,0.7v1.3h3.5v-1.3C92.9,55.2,92.9,55,92.7,54.8z"/>
	<path class="st0" d="M99.4,60.1h-3.5v-7.6h3.5c1,0,1.7,0.7,1.7,1.7V55c0,1-0.7,1.3-0.7,1.3s0.7,0.3,0.7,1.1v1
		C101.1,59.4,100.4,60.1,99.4,60.1z M100.2,54c0-0.4-0.3-0.7-0.7-0.7h-2.7v2.5h2.5c0.6,0,0.8-0.2,0.8-0.8L100.2,54L100.2,54z
		 M100.2,57.5c0-0.6-0.2-0.9-0.7-0.9h-2.6v2.6h2.7c0.4,0,0.7-0.4,0.7-0.7L100.2,57.5L100.2,57.5z"/>
	<path class="st0" d="M103.2,60.1v-7.6h1v6.7h3.4v0.9C107.6,60.1,103.2,60.1,103.2,60.1z"/>
	<path class="st0" d="M109.5,60.1v-7.6h4.6v0.9h-3.6v2.5h2.8v0.9h-2.8v2.5h3.6v0.9h-4.6V60.1z"/>
	<path class="st0" d="M124.2,60.1h-3.5v-7.6h3.5c1,0,1.7,0.7,1.7,1.7V55c0,1-0.7,1.3-0.7,1.3s0.7,0.3,0.7,1.1v1
		C125.9,59.4,125.2,60.1,124.2,60.1z M125,54c0-0.4-0.3-0.7-0.7-0.7h-2.7v2.5h2.5c0.6,0,0.8-0.2,0.8-0.8L125,54L125,54z M125,57.5
		c0-0.6-0.2-0.9-0.7-0.9h-2.6v2.6h2.7c0.4,0,0.7-0.4,0.7-0.7L125,57.5L125,57.5z"/>
	<path class="st0" d="M128,60.1v-7.6h4.6v0.9H129v2.5h2.8v0.9H129v2.5h3.6v0.9H128V60.1z"/>
	<path class="st0" d="M138.4,60.1h-3.7v-7.6h3.7c1,0,1.7,0.7,1.7,1.7v4.3C140.1,59.4,139.4,60.1,138.4,60.1z M139.1,54
		c0-0.4-0.3-0.7-0.7-0.7h-2.9v5.8h2.9c0.4,0,0.7-0.3,0.7-0.7V54z"/>
</g>
<g>
	<path class="st0" d="M143.6,54L143.6,54l0.8,0.8l-0.4,0.4l-0.8-0.8l0,0l0.1,1.1h-0.6l0.1-1.1l0,0l-0.8,0.8l-0.4-0.4l0.8-0.7V54
		l-0.8-0.7L142,53l0.8,0.8l0,0l-0.1-1.1h0.6l-0.1,1.1l0,0l0.8-0.8l0.4,0.4L143.6,54z"/>
</g>
</svg>
