<?xml version="1.0" encoding="utf-8"?>
<!-- Generator: Adobe Illustrator 22.0.1, SVG Export Plug-In . SVG Version: 6.00 Build 0)  -->
<svg version="1.1" id="Layer_1" xmlns="http://www.w3.org/2000/svg" xmlns:xlink="http://www.w3.org/1999/xlink" x="0px" y="0px"
	 viewBox="0 0 1482 355.1" style="enable-background:new 0 0 1482 355.1;" xml:space="preserve">
<style type="text/css">
	.st0{fill:#FFFFFF;}
</style>
<g>
	<path class="st0" d="M89,114l-15,19.8v0.3l23.9-3.2v10.8L74,138.8v0.3l15.2,19l-10,5.7l-9.5-22.1h-0.3L59.1,164l-9-5.7l15-19.3
		v-0.3l-23.4,3v-10.8l23.2,3v-0.3l-14.9-19.3l9.6-5.5l9.8,22h0.3l9.6-22.1L89,114z"/>
	<path class="st0" d="M159.7,216.9h-24.3c-11.5,0-20.1-8.5-20.1-20.1v-51.5c0-11.5,8.5-20.1,20.1-20.1H160c11.7,0,19.8,9.5,19.8,21
		v3.5h-11.4v-5.1c0-4.3-3.5-8.4-7.9-8.4h-25.9c-4.3,0-7.9,4.1-7.9,8.4v53c0,4.3,3.6,8.4,7.9,8.4h25.9c4.4,0,7.9-4.1,7.9-8.4v-5.4
		h11.4v4.6C179.8,208.4,171.4,216.9,159.7,216.9z"/>
	<path class="st0" d="M205,216.9v-91.7h11.7v80.9h41.1v10.8H205z"/>
	<path class="st0" d="M280,216.9v-10.4h13.3v-70.8H280v-10.4h37.9v10.4h-13.4v70.8h13.4v10.4H280z"/>
	<path class="st0" d="M387.6,216.9h-24.3c-11.5,0-20.1-8.5-20.1-20.1v-51.5c0-11.5,8.5-20.1,20.1-20.1H388c11.7,0,19.8,9.5,19.8,21
		v3.5h-11.4v-5.1c0-4.3-3.5-8.4-7.9-8.4h-25.9c-4.3,0-7.9,4.1-7.9,8.4v53c0,4.3,3.6,8.4,7.9,8.4h25.9c4.4,0,7.9-4.1,7.9-8.4v-5.4
		h11.4v4.6C407.7,208.4,399.3,216.9,387.6,216.9z"/>
	<path class="st0" d="M488,218.7l-30-45.4l-13.4,15.3v28.3H433v-91.7h11.5v44.9h1.6l43-46l8.5,8.5l-30.8,32.7l31.5,46.5L488,218.7z"
		/>
	<path class="st0" d="M587.6,136v29.7h32.9v10.9h-32.9v40.3h-11.1v-91.7h53.8V136H587.6z"/>
	<path class="st0" d="M700,216.9h-27.5c-11.5,0-20.1-8.5-20.1-20.1v-51.5c0-11.5,8.5-20.1,20.1-20.1H700c11.7,0,20.1,8.5,20.1,20.1
		v51.5C720.1,208.4,711.7,216.9,700,216.9z M709,144.4c0-4.3-3.5-8.4-7.9-8.4h-29.7c-4.4,0-7.9,4.1-7.9,8.4v53.4
		c0,4.3,3.5,8.4,7.9,8.4h29.7c4.4,0,7.9-4.1,7.9-8.4V144.4z"/>
	<path class="st0" d="M797.9,216.9v-29.9c0-6.8-1.9-10.4-8.9-10.4h-32.7v40.3h-10.9v-91.7h43.8c11.5,0,20.1,8.5,20.1,20.1v10.4
		c0,11.9-8.2,15.2-8.2,15.2s8.2,3,8.2,13.9v32.1H797.9z M797.9,144c0-4.3-3.6-8.9-7.9-8.9h-33.7v30.4h31.9c7.4,0,9.6-3,9.6-10V144z"
		/>
	<path class="st0" d="M934.6,216.9h-44.7v-91.7h44.7c11.7,0,20.1,8.5,20.1,20.1v51.5C954.7,208.4,946.3,216.9,934.6,216.9z
		 M943.3,144.4c0-4.3-3.5-8.4-7.9-8.4H901v70.2h34.5c4.4,0,7.9-4.1,7.9-8.4V144.4z"/>
	<path class="st0" d="M980,216.9v-91.7h54.7V136h-43.6v29.7h33.8v10.9h-33.8v29.6h43.6v10.8H980z"/>
	<path class="st0" d="M1095.1,136v80.9h-12.2V136h-27.7v-10.8h67.7V136H1095.1z"/>
	<path class="st0" d="M1203.6,216.9h-11.2v-30.4H1150v30.4h-11.2v-56.4c0-6.3,1.1-10,5.2-14.2l21.2-21h12l21.2,21
		c4.1,4.3,5.2,7.9,5.2,14.2V216.9z M1189.6,153.5l-17.7-18.5h-1.3l-18,18.5c-2.5,2.7-2.7,4.1-2.7,7.9v15.2h42.4v-15.2
		C1192.3,157.6,1192.2,156.2,1189.6,153.5z"/>
	<path class="st0" d="M1228.8,216.9v-10.4h13.3v-70.8h-13.3v-10.4h37.9v10.4h-13.4v70.8h13.4v10.4H1228.8z"/>
	<path class="st0" d="M1292.1,216.9v-91.7h11.7v80.9h41.1v10.8H1292.1z"/>
	<path class="st0" d="M1409.9,217.2h-24.3c-11.5,0-20.1-8.5-20.1-20.1v-3.8h11.1v4.7c0,4.3,3.5,8.4,7.9,8.4h26.6
		c4.4,0,7.9-4.1,7.9-8.4v-12.6c0-4.3-3.3-8.2-7.9-8.4l-24.8-0.8c-11.5-0.3-20.1-8.5-20.1-20.1v-10.9c0-11.5,8.5-20.1,20.1-20.1h22.4
		c11.7,0,20.1,8.5,20.1,20.1v4h-11.1v-4.9c0-4.3-3.5-8.4-7.9-8.4H1385c-4.4,0-7.9,4.1-7.9,8.4v12.8c0,4.3,3.5,8.2,7.9,8.4l24.8,0.6
		c11.4,0.3,20.1,8.5,20.1,20.1v10.9C1429.9,208.7,1421.6,217.2,1409.9,217.2z"/>
</g>
</svg>
