<?xml version="1.0" encoding="utf-8"?>
<!-- Generator: Adobe Illustrator 22.0.1, SVG Export Plug-In . SVG Version: 6.00 Build 0)  -->
<svg version="1.1" id="Layer_1" xmlns="http://www.w3.org/2000/svg" xmlns:xlink="http://www.w3.org/1999/xlink" x="0px" y="0px"
	 viewBox="0 0 1482 207.1" style="enable-background:new 0 0 1482 207.1;" xml:space="preserve">
<style type="text/css">
	.st0{fill:#FFFFFF;}
</style>
<g>
	<g>
		<path class="st0" d="M1051.8,52.7c-17.8,0-29.9,5.2-36.6,9.3V27.7h-31.6v90.1c0,40.2,34.9,65.1,67.3,65.1c22,0,39.7-8,51.2-23.2
			c12.2-16.1,13.5-34.6,13.5-41.8C1115.5,73.1,1082.5,52.7,1051.8,52.7z M1084.8,127.6c-4.2,16.9-18.6,28.7-35,28.7
			c-20.1,0-36.5-17.3-36.5-38.6c0-19.4,13.8-35.8,32-38.1c1.6-0.2,3.2-0.3,4.9-0.3c15.5,0.2,29.2,10.8,34,26.3l0.2,0.8
			c0.9,3.8,1.3,7.6,1.3,11.5C1085.8,121.3,1085.5,124.6,1084.8,127.6z"/>
		<path class="st0" d="M1399.2,27.7V62c-6.7-4-18.8-9.3-36.6-9.3c-30.7,0-63.7,20.4-63.7,65.2c0,7.2,1.3,25.6,13.5,41.8
			c11.5,15.2,29.2,23.2,51.2,23.2c32.4,0,67.3-24.9,67.3-65.1V27.7H1399.2z M1364.6,156.3c-16.4,0-30.8-11.8-35-28.7
			c-0.7-3-1-6.3-1-9.7c0-3.9,0.5-7.7,1.3-11.5l0.2-0.8c4.8-15.5,18.5-26.1,34-26.3c1.7,0,3.3,0.1,4.9,0.3c18.3,2.3,32,18.6,32,38.1
			C1401.1,138.9,1384.7,156.3,1364.6,156.3z"/>
		<polygon class="st0" points="270.6,56.8 326.1,56.8 326.1,178.9 358.1,178.9 358.1,56.8 413.6,56.8 413.6,27.7 270.6,27.7 		"/>
		<rect x="899.9" y="27.7" class="st0" width="32" height="151.2"/>
		<rect x="21.6" y="27.7" class="st0" width="32" height="151.2"/>
		<polygon class="st0" points="211.5,137.2 127.4,27.7 95.5,27.7 95.5,178.9 127.4,178.9 127.4,69.3 211.5,178.9 243.4,178.9 
			243.4,27.7 211.5,27.7 		"/>
		<polygon class="st0" points="444.6,178.9 564.6,178.9 564.6,149.8 476.5,149.8 476.5,117.8 564.6,117.8 564.6,88.7 476.5,88.7 
			476.5,56.8 564.6,56.8 564.6,27.7 444.6,27.7 		"/>
		<polygon class="st0" points="635.7,27.7 603.7,27.7 603.7,178.9 716.2,178.9 716.2,149.8 635.7,149.8 		"/>
		<polygon class="st0" points="783.8,27.7 751.8,27.7 751.8,178.9 864.3,178.9 864.3,149.8 783.8,149.8 		"/>
		<path class="st0" d="M1243.8,119.8c-1.1,19-16.9,34.1-36.1,34.1c-8.9,0-17.1-3.2-23.4-8.6l67.6-48.4l13.5-9.7
			c-3.8-7.1-8.8-13.4-14.8-18.7c-11.5-10-26.5-16.1-42.9-16.1c-36,0-65.2,29.2-65.2,65.2s29.2,65.2,65.2,65.2s65.2-29.2,65.2-65.2
			c0-1.3,0-2.7-0.1-4L1243.8,119.8z M1171.5,117.7c0-1.3,0.1-2.7,0.2-4c1.9-18.1,17.3-32.3,36-32.3c6.6,0,12.8,1.8,18.1,4.8
			l-53.6,38.3C1171.7,122.4,1171.5,120.1,1171.5,117.7z"/>
		<g>
			<path class="st0" d="M1441.2,37.8c0-1.4,0.3-2.7,0.8-4c0.5-1.2,1.3-2.3,2.2-3.2s2-1.6,3.2-2.2c1.2-0.5,2.6-0.8,4-0.8
				s2.7,0.3,4,0.8c1.2,0.5,2.3,1.3,3.2,2.2c0.9,0.9,1.7,2,2.2,3.2s0.8,2.6,0.8,4s-0.3,2.7-0.8,3.9s-1.3,2.3-2.2,3.2
				c-0.9,0.9-2,1.6-3.2,2.1s-2.6,0.8-4,0.8s-2.7-0.3-4-0.8c-1.2-0.5-2.3-1.2-3.2-2.1c-0.9-0.9-1.7-2-2.2-3.2
				S1441.2,39.2,1441.2,37.8z M1442.9,37.8c0,1.2,0.2,2.3,0.7,3.3c0.4,1,1.1,2,1.8,2.8c0.8,0.8,1.7,1.4,2.7,1.9
				c1,0.4,2.2,0.7,3.4,0.7s2.3-0.2,3.4-0.7c1-0.4,2-1.1,2.7-1.9c0.8-0.8,1.4-1.7,1.8-2.8c0.4-1,0.7-2.1,0.7-3.3s-0.2-2.3-0.7-3.4
				c-0.4-1-1.1-2-1.8-2.7c-0.8-0.8-1.7-1.4-2.7-1.8s-2.2-0.7-3.4-0.7s-2.3,0.2-3.4,0.7c-1,0.4-2,1.1-2.7,1.8
				c-0.8,0.8-1.4,1.7-1.8,2.7C1443.1,35.5,1442.9,36.6,1442.9,37.8z M1447.5,32.1h4c0.5,0,1.1,0.1,1.6,0.2c0.5,0.1,1,0.3,1.4,0.6
				s0.7,0.6,1,1c0.2,0.4,0.4,0.9,0.4,1.6c0,0.8-0.2,1.5-0.7,2s-1.1,0.9-1.9,1.1l3.1,5h-2.5l-2.7-4.8h-1.5v4.8h-2.1V32.1H1447.5z
				 M1451.2,37.1c0.6,0,1.2-0.1,1.7-0.3s0.8-0.7,0.8-1.4c0-0.6-0.2-1-0.7-1.3c-0.5-0.2-1-0.3-1.5-0.3h-1.9v3.3H1451.2z"/>
		</g>
	</g>
</g>
</svg>
