<?xml version="1.0" encoding="utf-8"?>
<!-- Generator: Adobe Illustrator 22.0.1, SVG Export Plug-In . SVG Version: 6.00 Build 0)  -->
<svg version="1.1" id="Layer_1" xmlns="http://www.w3.org/2000/svg" xmlns:xlink="http://www.w3.org/1999/xlink" x="0px" y="0px"
	 viewBox="0 0 146.5 20.6" style="enable-background:new 0 0 146.5 20.6;" xml:space="preserve">
<style type="text/css">
	.st0{fill:#FFFFFF;}
</style>
<g>
	<path class="st0" d="M4.5,16.1V4.9h1.4v9.8h5v1.3H4.5z"/>
	<path class="st0" d="M21.4,16.1h-1.4v-3.7h-5.1v3.7h-1.4V9.2c0-0.8,0.1-1.2,0.6-1.7l2.6-2.6h1.5l2.6,2.6c0.5,0.5,0.6,1,0.6,1.7
		V16.1z M19.7,8.4l-2.1-2.2h-0.2l-2.2,2.2c-0.3,0.3-0.3,0.5-0.3,1v1.8h5.1V9.3C20.1,8.9,20.1,8.7,19.7,8.4z"/>
	<path class="st0" d="M29.6,16.1h-5.1V4.9h5.1c1.4,0,2.5,1.1,2.5,2.5v1.2c0,1.4-1,1.9-1,1.9s1,0.4,1,1.7v1.5
		C32.1,15,31,16.1,29.6,16.1z M30.7,7.2c0-0.5-0.4-1.1-1-1.1h-3.9v3.6h3.7c0.9,0,1.2-0.4,1.2-1.2V7.2z M30.7,12.3
		c0-0.8-0.2-1.3-1.1-1.3h-3.8v3.8h3.9c0.5,0,1-0.6,1-1.1V12.3z"/>
	<path class="st0" d="M40.9,16.1h-3.3c-1.4,0-2.4-1-2.4-2.4V7.4c0-1.4,1-2.4,2.4-2.4h3.3c1.4,0,2.4,1,2.4,2.4v6.3
		C43.3,15,42.3,16.1,40.9,16.1z M42,7.2c0-0.5-0.4-1-1-1h-3.6c-0.5,0-1,0.5-1,1v6.5c0,0.5,0.4,1,1,1H41c0.5,0,1-0.5,1-1V7.2z"/>
	<path class="st0" d="M52.8,16.1v-3.6c0-0.8-0.2-1.3-1.1-1.3h-4v4.9h-1.3V4.9h5.3c1.4,0,2.4,1,2.4,2.4v1.3c0,1.4-1,1.8-1,1.8
		s1,0.4,1,1.7v3.9H52.8z M52.8,7.2c0-0.5-0.4-1.1-1-1.1h-4.1v3.7h3.9c0.9,0,1.2-0.4,1.2-1.2V7.2z"/>
	<path class="st0" d="M69.4,16.1h-5.4V4.9h5.4c1.4,0,2.4,1,2.4,2.4v6.3C71.8,15,70.8,16.1,69.4,16.1z M70.4,7.2c0-0.5-0.4-1-1-1
		h-4.2v8.5h4.2c0.5,0,1-0.5,1-1V7.2z"/>
	<path class="st0" d="M82.7,16.1h-1.4v-3.7h-5.1v3.7h-1.4V9.2c0-0.8,0.1-1.2,0.6-1.7l2.6-2.6h1.5l2.6,2.6c0.5,0.5,0.6,1,0.6,1.7
		V16.1z M81,8.4l-2.1-2.2h-0.2l-2.2,2.2c-0.3,0.3-0.3,0.5-0.3,1v1.8h5.1V9.3C81.4,8.9,81.3,8.7,81,8.4z"/>
	<path class="st0" d="M92.9,9.5l-2.6,2.6v4H89v-4l-2.6-2.6c-0.5-0.5-0.6-0.9-0.6-1.7V4.9h1.3v2.8c0,0.5,0,0.6,0.3,0.9l2.1,2.2h0.3
		l2.1-2.2c0.3-0.3,0.3-0.5,0.3-0.9V4.9h1.4v2.8C93.5,8.5,93.4,8.9,92.9,9.5z"/>
	<path class="st0" d="M108.5,16.1h-3c-1.4,0-2.4-1-2.4-2.4v-0.5h1.3v0.6c0,0.5,0.4,1,1,1h3.2c0.5,0,1-0.5,1-1v-1.5c0-0.5-0.4-1-1-1
		l-3-0.1c-1.4,0-2.4-1-2.4-2.4V7.4c0-1.4,1-2.4,2.4-2.4h2.7c1.4,0,2.4,1,2.4,2.4v0.5h-1.3V7.2c0-0.5-0.4-1-1-1h-3c-0.5,0-1,0.5-1,1
		v1.6c0,0.5,0.4,1,1,1l3,0.1c1.4,0,2.4,1,2.4,2.4v1.3C111,15.1,109.9,16.1,108.5,16.1z"/>
	<path class="st0" d="M121.7,16.1h-1.4v-3.7h-5.1v3.7h-1.4V9.2c0-0.8,0.1-1.2,0.6-1.7l2.6-2.6h1.5l2.6,2.6c0.5,0.5,0.6,1,0.6,1.7
		V16.1z M120,8.4l-2.1-2.2h-0.2l-2.2,2.2c-0.3,0.3-0.3,0.5-0.3,1v1.8h5.1V9.3C120.3,8.9,120.3,8.7,120,8.4z"/>
	<path class="st0" d="M124.8,16.1V4.9h1.4v9.8h5v1.3H124.8z"/>
	<path class="st0" d="M133.8,16.1V4.9h6.6v1.3h-5.3v3.6h4.1v1.3h-4.1v3.6h5.3v1.3H133.8z"/>
</g>
</svg>
